<?xml version="1.0" encoding="utf-8"?>
<!-- Generator: Adobe Illustrator 21.0.2, SVG Export Plug-In . SVG Version: 6.00 Build 0)  -->
<svg version="1.1" id="Layer_1" xmlns="http://www.w3.org/2000/svg" xmlns:xlink="http://www.w3.org/1999/xlink" x="0px" y="0px"
	 width="720px" height="504px" viewBox="0 0 720 504" enable-background="new 0 0 720 504" xml:space="preserve">
<g>
	<g>
		<path fill="#C800B9" d="M54.6,49.2c-11,2.1-21.6,4.5-23.4,17.1c-1.3,8.8,1.6,15.1,11.1,16.1c10.8,1.2,17-4.8,19.8-14.8
			c1.2-4.2,2.7-10,1-14.2c-1.6-4.2-5.8-5.1-9.8-5.6c-3.2-0.4-3.2,4.6,0,5c8.4,1,4.9,11.6,2.9,16.8c-2.6,6.6-9,9.6-15.9,7.4
			c-6.2-2-5.3-10.9-2.4-15.5c3.5-5.6,12-6.4,18-7.5C59.1,53.4,57.8,48.6,54.6,49.2L54.6,49.2z"/>
	</g>
</g>
<g>
	<g>
		<path fill="#C800B9" d="M76.9,16.5c0,20.7-0.1,41.3-0.1,62c0,3.2,5,3.2,5,0c0-20.7,0.1-41.3,0.1-62C81.9,13.3,76.9,13.3,76.9,16.5
			L76.9,16.5z"/>
	</g>
</g>
<g>
	<g>
		<path fill="#C800B9" d="M78.2,58.5c7.1-3.7,13.9-7.9,20.3-12.8c2.5-1.9,0-6.3-2.5-4.3c-6.4,4.8-13.2,9.1-20.3,12.8
			C72.9,55.6,75.4,59.9,78.2,58.5L78.2,58.5z"/>
	</g>
</g>
<g>
	<g>
		<path fill="#C800B9" d="M79.3,57.8C84,58.1,89,62.2,93,64.6c3.9,2.3,7.7,4.7,11.6,7.1c2.7,1.7,5.3-2.6,2.5-4.3
			c-4.9-3.1-9.9-6.1-14.9-9.1c-4.1-2.4-8-5.2-12.9-5.5C76.1,52.5,76.1,57.5,79.3,57.8L79.3,57.8z"/>
	</g>
</g>
<g>
	<g>
		<path fill="#C800B9" d="M134.8,44.3c-8.8-0.8-12.8,4.2-14.2,12.5c-1,6-1.1,16.3,4.2,20.6c5.1,4.2,11.1-2,13.7-6.3
			c4.7-7.9,4-17.3,3.1-26.1c-0.3-2.5-4.4-3.7-4.9-0.7c-1.5,9.8,2.3,19,10.3,24.9c2.6,1.9,5.1-2.4,2.5-4.3c-6.1-4.4-9.2-11.8-8-19.2
			c-1.6-0.2-3.3-0.4-4.9-0.7c0.5,5.2,1.2,10.5,0.3,15.7c-0.6,3.7-2.3,9.7-5.9,11.6c-5.6,3-5.9-7-5.8-10.7c0.2-6.4,1.9-13.1,9.6-12.4
			C138,49.6,137.9,44.6,134.8,44.3L134.8,44.3z"/>
	</g>
</g>
<g>
	<g>
		<path fill="#C800B9" d="M152.3,47.5c-1,7.8,0.9,22.8,10.8,24.3c4.7,0.7,7.2-2.5,9.5-6.1c3.4-5.3,6.1-10.9,8.3-16.8
			c-1.6-0.2-3.3-0.4-4.9-0.7c-1,10.2-2.8,20.2-5.5,30.1c-2.5,9-5.3,18.1-11.9,25c-2.2,2.3,1.3,5.9,3.5,3.5
			c6.7-7.1,10-16.2,12.6-25.4c3.1-10.8,5.1-21.9,6.2-33.2c0.3-3-4-3.1-4.9-0.7c-1.3,3.5-2.9,6.8-4.6,10.1c-1.2,2.3-4.1,9-7.2,9.2
			c-3.8,0.3-5.9-6.2-6.6-8.9c-0.9-3.5-1-7-0.5-10.6C157.7,44.3,152.7,44.4,152.3,47.5L152.3,47.5z"/>
	</g>
</g>
<g>
</g>
<g>
</g>
<g>
</g>
<g>
</g>
<g>
</g>
<g>
</g>
</svg>
